<svg width="18" height="19" viewBox="0 0 18 19" fill="none" xmlns="http://www.w3.org/2000/svg">
<path d="M14.6048 9.98949C14.6318 9.76449 14.6498 9.53049 14.6498 9.28749C14.6498 9.04449 14.6318 8.81049 14.5958 8.58549L16.1168 7.39749C16.2518 7.28949 16.2878 7.09149 16.2068 6.93849L14.7668 4.44549C14.6768 4.28349 14.4878 4.22949 14.3258 4.28349L12.5348 5.00349C12.1568 4.71549 11.7608 4.48149 11.3198 4.30149L11.0498 2.39349C11.0228 2.21349 10.8698 2.08749 10.6898 2.08749H7.80984C7.62984 2.08749 7.48584 2.21349 7.45884 2.39349L7.18884 4.30149C6.74784 4.48149 6.34284 4.72449 5.97384 5.00349L4.18284 4.28349C4.02084 4.22049 3.83184 4.28349 3.74184 4.44549L2.30184 6.93849C2.21184 7.10049 2.24784 7.28949 2.39184 7.39749L3.91284 8.58549C3.87684 8.81049 3.84984 9.05349 3.84984 9.28749C3.84984 9.52149 3.86784 9.76449 3.90384 9.98949L2.38284 11.1775C2.24784 11.2855 2.21184 11.4835 2.29284 11.6365L3.73284 14.1295C3.82284 14.2915 4.01184 14.3455 4.17384 14.2915L5.96484 13.5715C6.34284 13.8595 6.73884 14.0935 7.17984 14.2735L7.44984 16.1815C7.48584 16.3615 7.62984 16.4875 7.80984 16.4875H10.6898C10.8698 16.4875 11.0228 16.3615 11.0408 16.1815L11.3108 14.2735C11.7518 14.0935 12.1568 13.8505 12.5258 13.5715L14.3168 14.2915C14.4788 14.3545 14.6678 14.2915 14.7578 14.1295L16.1978 11.6365C16.2878 11.4745 16.2518 11.2855 16.1078 11.1775L14.6048 9.98949ZM9.24984 11.9875C7.76484 11.9875 6.54984 10.7725 6.54984 9.28749C6.54984 7.80249 7.76484 6.58749 9.24984 6.58749C10.7348 6.58749 11.9498 7.80249 11.9498 9.28749C11.9498 10.7725 10.7348 11.9875 9.24984 11.9875Z" fill="black"/>
</svg>
