<svg width="44" height="53" viewBox="0 0 44 53" fill="none" xmlns="http://www.w3.org/2000/svg">
<path d="M30.1103 34.9208C32.2998 38.5649 34.4868 42.209 36.6712 45.8531C36.8727 46.3022 37.1657 46.7042 37.5314 47.0336C37.8972 47.363 38.3277 47.6124 38.7953 47.7659C39.263 47.9193 39.7575 47.9735 40.2473 47.9249C40.7371 47.8764 41.2114 47.7261 41.6398 47.4838C42.2755 47.0123 42.7312 46.338 42.9317 45.5724C43.1321 44.8067 43.0653 43.9956 42.7422 43.2731L34.8721 29.646C34.4473 29.2416 33.9584 28.9105 33.4252 28.6661C32.9263 28.4385 32.3936 28.2937 31.8481 28.2374H21.735C21.6493 27.5106 21.6059 26.7796 21.6048 26.0478C21.6021 25.2803 21.6456 24.5134 21.735 23.7511H29.1916C29.1916 23.7511 32.5295 21.6917 29.0615 19.2496H20.9694C20.8896 17.5772 20.5433 15.9284 19.9435 14.3652C19.6423 13.8213 19.2156 13.3569 18.6991 13.0108C18.1825 12.6646 17.5908 12.4466 16.9731 12.3748C16.2163 12.3378 15.4664 12.5338 14.8244 12.9362C14.1824 13.3387 13.6792 13.9283 13.3826 14.6255C13.2065 15.7892 13.0687 17.0294 12.9998 18.3385C12.8371 21.3911 13.0402 24.4521 13.6046 27.4565C14.0563 29.9063 14.3702 32.892 16.8353 34.1782C18.0885 34.7578 19.4712 35.0006 20.8469 34.8825C22.179 34.8366 23.4805 34.8825 24.8126 34.8825L28.472 34.9284C29.0157 34.8592 29.5659 34.8566 30.1103 34.9208Z" fill="#1D94A8"/>
<path fill-rule="evenodd" clip-rule="evenodd" d="M14.4569 12.3501C15.2188 11.8725 16.1088 11.6399 17.0069 11.6838C17.0223 11.6846 17.0377 11.6858 17.053 11.6876C17.7799 11.7721 18.4762 12.0287 19.0842 12.4361C19.6921 12.8435 20.1941 13.3899 20.5487 14.0301C20.5643 14.0582 20.5779 14.0874 20.5894 14.1174C21.1367 15.5436 21.4818 17.0382 21.6157 18.5578H29.0615C29.2041 18.5578 29.3432 18.6019 29.4598 18.684C30.4003 19.3462 30.966 20.0427 31.2026 20.769C31.4445 21.5115 31.3101 22.1851 31.0485 22.72C30.7938 23.241 30.4142 23.6441 30.1199 23.907C29.9697 24.0413 29.8337 24.1461 29.7335 24.2185C29.6833 24.2548 29.6416 24.2833 29.6111 24.3036C29.6021 24.3096 29.5941 24.3148 29.5871 24.3194C29.5821 24.3226 29.5777 24.3254 29.5738 24.3279L29.5619 24.3355L29.5578 24.3381L29.5562 24.3391L29.5555 24.3395C29.5552 24.3397 29.5549 24.3399 29.1916 23.7511L29.5549 24.3399C29.4457 24.4072 29.3199 24.4429 29.1916 24.4429H22.3607C22.3161 24.9758 22.2947 25.5104 22.2966 26.0454L22.2966 26.0468C22.2973 26.5472 22.3186 27.0472 22.3604 27.5456H31.8481C31.8719 27.5456 31.8956 27.5468 31.9193 27.5492C32.5394 27.6133 33.145 27.778 33.7123 28.0367L33.7135 28.0372C34.3162 28.3135 34.8689 28.6878 35.3491 29.1449C35.397 29.1905 35.4381 29.2428 35.4712 29.3L43.3412 42.9272C43.3531 42.9478 43.364 42.969 43.3737 42.9907C43.7611 43.857 43.8413 44.8296 43.6009 45.7476C43.3606 46.6656 42.8141 47.4741 42.0519 48.0394C42.029 48.0564 42.0051 48.0719 41.9804 48.0859C41.4682 48.3756 40.9012 48.5553 40.3156 48.6134C39.73 48.6714 39.1387 48.6066 38.5796 48.4231C38.0205 48.2396 37.5058 47.9415 37.0685 47.5477C36.6418 47.1634 36.298 46.6964 36.0578 46.1752C33.9403 42.6428 31.8204 39.1104 29.6981 35.578C29.3185 35.5543 28.9372 35.5665 28.5594 35.6147C28.5275 35.6187 28.4954 35.6206 28.4633 35.6202L24.8083 35.5743C24.3471 35.5742 23.8983 35.569 23.4553 35.5638C22.5934 35.5537 21.7536 35.5439 20.888 35.5733C19.3984 35.698 17.9018 35.4336 16.5449 34.806C16.5349 34.8014 16.5251 34.7966 16.5153 34.7915C15.0774 34.0413 14.2934 32.8008 13.8151 31.491C13.4257 30.4245 13.2189 29.2482 13.0353 28.2036C12.9979 27.9906 12.9614 27.7831 12.9245 27.5831C12.3501 24.525 12.1434 21.4093 12.309 18.3022M28.9743 23.0593C29.0369 23.0121 29.1142 22.9502 29.198 22.8754C29.4213 22.6758 29.6593 22.4114 29.8056 22.1123C29.945 21.8271 29.9948 21.528 29.8871 21.1975C29.7828 20.8772 29.5038 20.4458 28.8362 19.9414H20.9694C20.6002 19.9414 20.296 19.6514 20.2784 19.2825C20.203 17.7004 19.878 16.1403 19.3156 14.6599C19.069 14.2295 18.7263 13.8618 18.314 13.5855C17.8952 13.3048 17.4164 13.1265 16.9163 13.0647C16.3086 13.0397 15.7074 13.1991 15.1918 13.5223C14.6933 13.8348 14.2976 14.2861 14.053 14.8199C13.8863 15.938 13.7564 17.1251 13.6907 18.3749L13.6906 18.3754C13.5309 21.3728 13.7303 24.3786 14.2845 27.3287L14.2849 27.331C14.3263 27.5552 14.3659 27.7795 14.4054 28.0033C14.5895 29.046 14.7713 30.0758 15.1148 31.0164C15.5207 32.1282 16.1225 33.0206 17.141 33.5573C18.2809 34.0814 19.5375 34.3005 20.7878 34.1932C20.7995 34.1922 20.8113 34.1915 20.8231 34.1911C21.7253 34.16 22.6273 34.1704 23.5149 34.1807C23.9515 34.1857 24.3846 34.1907 24.8126 34.1907H24.8212L24.8212 34.1908L28.4336 34.2361C29.0173 34.1657 29.6073 34.1649 30.1913 34.2337C30.4039 34.2588 30.593 34.3809 30.7033 34.5645C32.8929 38.2088 35.08 41.8531 37.2646 45.4974C37.2786 45.5208 37.2912 45.545 37.3024 45.5699C37.4645 45.9312 37.7001 46.2546 37.9944 46.5195C38.2886 46.7845 38.6349 46.9851 39.011 47.1086C39.3872 47.232 39.785 47.2756 40.179 47.2365C40.5588 47.1989 40.927 47.0852 41.2618 46.9024C41.7531 46.5262 42.1055 45.9966 42.2625 45.3972C42.4202 44.7948 42.3713 44.1573 42.1243 43.5864L34.3247 30.0814C33.9722 29.7596 33.5717 29.4943 33.1375 29.2952C32.7175 29.1037 32.2698 28.9802 31.8112 28.9291H21.735C21.3842 28.9291 21.089 28.6667 21.0479 28.3183C20.9592 27.5653 20.9141 26.8078 20.913 26.0495C20.9103 25.2546 20.9553 24.4601 21.0479 23.6705C21.0888 23.322 21.3841 23.0593 21.735 23.0593H28.9743ZM20.913 26.0495C20.913 26.0493 20.913 26.049 20.913 26.0488L21.6048 26.0478L20.913 26.0503C20.913 26.05 20.913 26.0498 20.913 26.0495ZM14.4569 12.3501C13.6951 12.8277 13.0979 13.5273 12.746 14.3548L14.4569 12.3501ZM12.746 14.3548C12.7232 14.4083 12.7073 14.4645 12.6986 14.522L12.746 14.3548ZM12.6986 14.522C12.5197 15.7047 12.3793 16.9673 12.309 18.3017L12.6986 14.522Z" fill="#2D2D2D"/>
<path d="M15.6257 10.2541C18.2218 10.2541 20.3263 8.1496 20.3263 5.55353C20.3263 2.95746 18.2218 0.852936 15.6257 0.852936C13.0296 0.852936 10.9251 2.95746 10.9251 5.55353C10.9251 8.1496 13.0296 10.2541 15.6257 10.2541Z" fill="#1D94A8"/>
<path fill-rule="evenodd" clip-rule="evenodd" d="M15.6257 1.54472C13.4117 1.54472 11.6169 3.33952 11.6169 5.55353C11.6169 7.76754 13.4117 9.56235 15.6257 9.56235C17.8397 9.56235 19.6345 7.76754 19.6345 5.55353C19.6345 3.33952 17.8397 1.54472 15.6257 1.54472ZM10.2333 5.55353C10.2333 2.5754 12.6476 0.161156 15.6257 0.161156C18.6038 0.161156 21.0181 2.5754 21.0181 5.55353C21.0181 8.53166 18.6038 10.9459 15.6257 10.9459C12.6476 10.9459 10.2333 8.53166 10.2333 5.55353Z" fill="#2D2D2D"/>
<path fill-rule="evenodd" clip-rule="evenodd" d="M12.2674 18.7447C12.4484 18.8771 12.554 19.0889 12.5508 19.313C12.5355 20.388 12.5124 21.465 12.4739 22.5432C12.465 22.7925 12.3226 23.0176 12.1013 23.1325C9.07065 24.7057 6.70311 27.3116 5.42689 30.4787L5.4258 30.4814C2.8832 36.7158 6.80277 44.2428 12.9746 46.5757C15.2787 47.4306 17.777 47.6195 20.1834 47.1208C22.4479 46.6324 24.5556 45.5892 26.3172 44.0847C28.0795 42.5796 29.4401 40.6602 30.2766 38.4989C30.3724 38.2516 30.601 38.0808 30.8653 38.0592C31.1295 38.0375 31.3829 38.1688 31.5176 38.3972L33.378 41.5513C33.4981 41.755 33.5059 42.006 33.3985 42.2167C31.8149 45.3261 29.3655 47.9109 26.3458 49.6595L26.3443 49.6604C23.2648 51.4328 19.7272 52.2479 16.1826 52.0017L16.1755 52.0012L16.1755 52.0012C11.6974 51.6439 7.51797 49.6139 4.46864 46.315L4.46018 46.3059L4.46027 46.3058C2.20618 43.7775 0.732668 40.6504 0.217827 37.3025C-0.297014 33.9546 0.168859 30.5293 1.55914 27.4405C1.56266 27.4327 1.56633 27.4249 1.57014 27.4172C2.5879 25.3639 4.00147 23.5321 5.7296 22.027C7.45773 20.5219 9.46632 19.3732 11.6399 18.647C11.8525 18.576 12.0864 18.6124 12.2674 18.7447ZM11.1505 20.3015C9.50528 20.9667 7.97995 21.9018 6.63828 23.0703C5.05089 24.4528 3.75185 26.1349 2.8155 28.0201C1.53903 30.8621 1.11175 34.0127 1.58531 37.0922C2.05921 40.1739 3.41497 43.0524 5.48885 45.3804C8.30107 48.4205 12.154 50.2915 16.2821 50.6218C19.5509 50.848 22.8131 50.0962 25.6531 48.4618C28.3327 46.91 30.5259 44.6452 31.9908 41.9228L31.0113 40.2621C30.0912 42.1229 28.8014 43.7825 27.2157 45.1368C25.279 46.7908 22.9617 47.9375 20.472 48.4739L20.4668 48.475L20.4668 48.475C17.8044 49.0273 15.0402 48.8183 12.4911 47.872L12.4874 47.8706C5.6919 45.3033 1.26786 37.0153 4.14413 29.9603C5.49314 26.6134 7.95339 23.8381 11.1047 22.097C11.124 21.4989 11.1388 20.9005 11.1505 20.3015Z" fill="#2D2D2D"/>
</svg>
