<svg width="61" height="52" viewBox="0 0 61 52" fill="none" xmlns="http://www.w3.org/2000/svg">
<path d="M4.49121 22.9818H10.1806L30.0935 6.6894L49.8771 22.9818H55.4372L47.5496 15.9993L47.6789 1H39.4034L39.662 9.40479L29.9642 1.77583L4.49121 22.9818Z" fill="#1D94A8" stroke="#231F20" stroke-width="1.5" stroke-linecap="round" stroke-linejoin="round"/>
<path d="M48.7134 41.8602V22.0264" stroke="#231F20" stroke-width="1.5" stroke-linecap="round" stroke-linejoin="round"/>
<path d="M11.4737 36.8174V21.9258" stroke="#231F20" stroke-width="1.5" stroke-linecap="round" stroke-linejoin="round"/>
<path d="M36.8389 40.6893V27.8666H23.6283V36.4869C24.3467 36.6593 25.4386 36.9323 26.7101 37.3202C27.4284 37.5357 27.9384 37.7153 28.6353 37.9524C29.9427 38.3906 30.2156 38.5127 32.0044 39.1376C33.1394 39.5327 33.7212 39.7339 34.4611 39.9709C35.4381 40.3301 36.2642 40.5672 36.8389 40.6893Z" stroke="#231F20" stroke-width="1.5" stroke-linecap="round" stroke-linejoin="round"/>
<path d="M1 44.4104C4.33318 39.5184 10.468 36.6593 16.1933 36.0056C21.9186 35.3519 27.3638 37.5573 32.6724 39.425C40.4522 42.1619 53.8712 45.1072 59.4456 36.8173" stroke="#1D94A8" stroke-width="1.5" stroke-linecap="round" stroke-linejoin="round"/>
<path d="M1.64655 49.1013C3.96413 46.5244 6.9466 44.6355 10.2668 43.6418C13.5421 42.565 17.0434 42.3718 20.4173 43.0814C24.4616 44.1015 28.1827 46.077 31.9613 47.8011C41.0988 51.9747 52.5135 53.1959 59.4097 44.4104" stroke="#1D94A8" stroke-width="1.5" stroke-linecap="round" stroke-linejoin="round"/>
</svg>
