<svg width="70" height="48" viewBox="0 0 70 48" fill="none" xmlns="http://www.w3.org/2000/svg">
<path d="M34.9103 39.0615C34.9103 39.0615 51.3577 28.0932 67.9969 39.0615V6.16665C67.9969 6.16665 53.2547 -3.67155 34.9103 6.16665V39.0615Z" fill="#1D94A8"/>
<path fill-rule="evenodd" clip-rule="evenodd" d="M68.5719 5.30283C68.5724 5.3032 68.5729 5.30353 67.9969 6.16665L68.5719 5.30283L69.0346 5.61162V40.9884L67.4258 39.9279C59.4004 34.6377 51.4348 34.6337 45.4383 35.9616C42.4354 36.6265 39.9344 37.6247 38.1858 38.4562C37.3125 38.8716 36.6295 39.244 36.1685 39.5103C35.938 39.6433 35.7633 39.7498 35.6482 39.8215C35.5906 39.8574 35.548 39.8846 35.5208 39.9022L35.4916 39.9212L35.486 39.9249L33.8726 41.0008V5.54567L34.4199 5.25219C43.842 0.199048 52.3685 0.191103 58.5418 1.46093C61.6226 2.09462 64.1143 3.04538 65.8409 3.84065C66.7047 4.23852 67.3787 4.59823 67.8409 4.86127C68.072 4.99283 68.2504 5.1003 68.3733 5.17641C68.4347 5.21447 68.4823 5.2447 68.5157 5.26618L68.5551 5.29175L68.5667 5.2994L68.5705 5.30191L68.5719 5.30283ZM35.948 37.2599C36.334 37.0541 36.7846 36.8245 37.2946 36.582C39.1499 35.6997 41.8007 34.6414 44.9896 33.9353C50.9787 32.6091 58.8941 32.523 66.9592 37.1992V6.74832C66.9141 6.72208 66.8658 6.69427 66.8144 6.66498C66.3987 6.42843 65.7776 6.09639 64.9727 5.72565C63.3619 4.9837 61.0216 4.0898 58.1237 3.49372C52.4583 2.32837 44.6506 2.29687 35.948 6.79301V37.2599Z" fill="#1D94A8"/>
<path d="M34.9101 39.0615C34.9101 39.0615 18.5131 28.0932 1.82352 39.0615V6.16665C1.82352 6.16665 16.5657 -3.67155 34.9101 6.16665V39.0615Z" fill="#1D94A8"/>
<path fill-rule="evenodd" clip-rule="evenodd" d="M2.86117 6.74832V37.2017C10.9482 32.5233 18.8647 32.6087 24.85 33.9353C28.0359 34.6415 30.6822 35.7 32.5337 36.5824C33.0404 36.8239 33.4884 37.0525 33.8724 37.2578V6.79301C25.1698 2.29687 17.3621 2.32837 11.6967 3.49372C8.79883 4.0898 6.45854 4.9837 4.84771 5.72565C4.0428 6.09639 3.42168 6.42843 3.00603 6.66498C2.95457 6.69427 2.90627 6.72208 2.86117 6.74832ZM34.3332 39.924L34.3276 39.9204L34.2986 39.9014C34.2715 39.8839 34.229 39.8567 34.1717 39.8208C34.057 39.7491 33.8828 39.6427 33.653 39.5097C33.1933 39.2435 32.5122 38.8711 31.6409 38.4559C29.8965 37.6245 27.4003 36.6264 24.4009 35.9615C18.4114 34.6339 10.4449 34.6373 2.3934 39.9287L0.785828 40.9852V5.61162L1.24749 5.30353L1.8235 6.16665C1.24749 5.30353 1.24694 5.30389 1.24749 5.30353L1.24992 5.30191L1.25371 5.2994L1.26534 5.29175L1.30472 5.26618C1.3381 5.2447 1.38568 5.21447 1.44712 5.17641C1.56999 5.1003 1.74837 4.99283 1.97953 4.86127C2.44175 4.59823 3.11568 4.23852 3.97948 3.84065C5.70607 3.04538 8.19785 2.09462 11.2786 1.46093C17.4519 0.191103 25.9784 0.199048 35.4005 5.25219L35.9478 5.54567V41.0041L34.3332 39.924Z" fill="#1D94A8"/>
<path fill-rule="evenodd" clip-rule="evenodd" d="M0.785828 39.0616H2.86117V41.8078H29.5602L29.8706 42.188L29.8716 42.1893L29.8813 42.2009C29.8907 42.2121 29.9061 42.2303 29.9273 42.2547C29.9697 42.3037 30.0351 42.3776 30.1215 42.4707C30.2948 42.6574 30.5505 42.9192 30.8732 43.2107C31.5261 43.8006 32.417 44.4797 33.4228 44.9231C34.4236 45.3642 35.4738 45.5456 36.512 45.2524C37.5425 44.9614 38.7296 44.1552 39.9174 42.2885L40.2218 41.8099L66.9994 41.7107V39.0616H69.0748V43.7784L41.3502 43.8811C40.0498 45.752 38.6 46.8193 37.076 47.2496C35.4343 47.7132 33.8743 47.3901 32.5858 46.8221C31.3023 46.2565 30.2249 45.422 29.4819 44.7506C29.107 44.4119 28.8081 44.1063 28.601 43.8832H0.785828V39.0616Z" fill="#2D2D2D"/>
<path fill-rule="evenodd" clip-rule="evenodd" d="M39.1109 13.207C39.1111 13.2069 39.1113 13.2067 38.6941 12.6548C38.277 12.103 38.2773 12.1028 38.2776 12.1025L38.2786 12.1018L38.2814 12.0997L38.2907 12.0927L38.3235 12.0685C38.3518 12.0478 38.3926 12.0182 38.4456 11.9806C38.5516 11.9055 38.7062 11.7985 38.906 11.6669C39.3056 11.4039 39.8866 11.0422 40.6211 10.6414C42.0884 9.84068 44.1785 8.87798 46.6666 8.23519C51.6557 6.94628 58.27 6.94357 64.61 12.1189L63.7351 13.1907C57.8252 8.36648 51.7003 8.36376 47.0127 9.57477C44.6624 10.1819 42.6797 11.0942 41.2839 11.8559C40.5868 12.2363 40.0386 12.5777 39.6669 12.8225C39.481 12.9448 39.3395 13.0429 39.2457 13.1094C39.1988 13.1426 39.1639 13.1679 39.1413 13.1845L39.1168 13.2025L39.1117 13.2064L39.1109 13.207Z" fill="#2D2D2D"/>
<path fill-rule="evenodd" clip-rule="evenodd" d="M39.1107 19.8669C39.1108 19.8667 39.111 19.8666 38.6941 19.3145C38.2772 18.7625 38.2775 18.7623 38.2779 18.762L38.2788 18.7613L38.2817 18.7592L38.2909 18.7522L38.3238 18.728C38.3521 18.7073 38.3929 18.6777 38.4459 18.6402C38.5519 18.5652 38.7065 18.4583 38.9063 18.3268C39.3059 18.0641 39.8868 17.7028 40.6214 17.3024C42.0887 16.5025 44.1787 15.5408 46.6668 14.8986C51.6557 13.6111 58.2698 13.6083 64.6097 18.7784L63.7353 19.8507C57.8254 15.0312 51.7003 15.0285 47.0125 16.2383C44.6622 16.8449 42.6795 17.7562 41.2836 18.5171C40.5866 18.8971 40.0384 19.2383 39.6666 19.4828C39.4808 19.605 39.3392 19.7029 39.2455 19.7694C39.1986 19.8026 39.1636 19.8279 39.1411 19.8444L39.1166 19.8624L39.1114 19.8663L39.1107 19.8669Z" fill="#2D2D2D"/>
<path fill-rule="evenodd" clip-rule="evenodd" d="M39.1109 25.4265C39.1111 25.4264 39.1113 25.4262 38.6941 24.8744C38.277 24.3225 38.2773 24.3223 38.2776 24.322L38.2786 24.3213L38.2814 24.3192L38.2907 24.3123L38.3235 24.288C38.3518 24.2673 38.3926 24.2377 38.4456 24.2001C38.5516 24.125 38.7062 24.018 38.906 23.8864C39.3056 23.6234 39.8866 23.2618 40.6211 22.8609C42.0884 22.0602 44.1785 21.0975 46.6666 20.4547C51.6557 19.1658 58.27 19.1631 64.61 24.3385L63.7351 25.4103C57.8252 20.586 51.7003 20.5833 47.0127 21.7943C44.6624 22.4015 42.6797 23.3137 41.2839 24.0754C40.5868 24.4558 40.0386 24.7973 39.6669 25.042C39.481 25.1644 39.3395 25.2624 39.2457 25.3289C39.1988 25.3621 39.1639 25.3875 39.1413 25.404L39.1168 25.4221L39.1117 25.4259L39.1109 25.4265Z" fill="#2D2D2D"/>
<path fill-rule="evenodd" clip-rule="evenodd" d="M39.1107 32.1167C39.1108 32.1166 39.111 32.1164 38.6941 31.5644C38.2772 31.0123 38.2775 31.0121 38.2779 31.0118L38.2788 31.0111L38.2817 31.009L38.2909 31.0021L38.3238 30.9778C38.3521 30.9571 38.3929 30.9276 38.4459 30.89C38.5519 30.815 38.7065 30.7081 38.9063 30.5767C39.3059 30.3139 39.8868 29.9526 40.6214 29.5522C42.0887 28.7523 44.1787 27.7906 46.6668 27.1484C51.6557 25.8609 58.2698 25.8581 64.6097 31.0282L63.7353 32.1005C57.8254 27.281 51.7003 27.2783 47.0125 28.4881C44.6622 29.0947 42.6795 30.006 41.2836 30.767C40.5866 31.147 40.0384 31.4881 39.6666 31.7326C39.4808 31.8548 39.3392 31.9528 39.2455 32.0192C39.1986 32.0524 39.1636 32.0777 39.1411 32.0942L39.1166 32.1123L39.1114 32.1161L39.1107 32.1167Z" fill="#2D2D2D"/>
<path fill-rule="evenodd" clip-rule="evenodd" d="M31.5227 12.1027C31.523 12.1029 31.5233 12.1031 31.106 12.6548C30.6886 13.2065 30.6888 13.2067 30.689 13.2068L30.6882 13.2062L30.6831 13.2024L30.6586 13.1843C30.636 13.1678 30.6011 13.1425 30.5543 13.1092C30.4606 13.0427 30.3191 12.9447 30.1335 12.8224C29.762 12.5776 29.2141 12.2362 28.5175 11.8558C27.1224 11.0941 25.1407 10.1819 22.7911 9.57476C18.1049 8.3638 11.9798 8.36639 6.0648 13.1909L5.19031 12.1188C11.5352 6.94366 18.1493 6.94625 23.1373 8.2352C25.6249 8.87801 27.714 9.84073 29.1805 10.6415C29.9147 11.0423 30.4953 11.404 30.8946 11.667C31.0943 11.7986 31.2489 11.9056 31.3548 11.9807C31.4077 12.0183 31.4485 12.0479 31.4768 12.0686L31.5096 12.0929L31.5189 12.0998L31.5217 12.1019L31.5227 12.1027Z" fill="#2D2D2D"/>
<path fill-rule="evenodd" clip-rule="evenodd" d="M31.5224 18.7621C31.5227 18.7624 31.523 18.7626 31.1059 19.3145C30.6889 19.8664 30.6891 19.8666 30.6892 19.8667L30.6885 19.8661L30.6833 19.8623L30.6588 19.8442C30.6363 19.8277 30.6014 19.8024 30.5545 19.7692C30.4608 19.7028 30.3194 19.6049 30.1337 19.4827C29.7622 19.2382 29.2144 18.897 28.5177 18.5171C27.1227 17.7561 25.1409 16.8448 22.7913 16.2383C18.1049 15.0285 11.9796 15.0311 6.06451 19.8508L5.19055 18.7782C11.5354 13.6084 18.1493 13.611 23.1371 14.8986C25.6246 15.5408 27.7137 16.5025 29.1803 17.3024C29.9144 17.7029 30.495 18.0642 30.8943 18.3269C31.094 18.4584 31.2486 18.5653 31.3545 18.6403C31.4074 18.6779 31.4482 18.7074 31.4765 18.7281L31.5093 18.7524L31.5186 18.7593L31.5214 18.7614L31.5224 18.7621Z" fill="#2D2D2D"/>
<path fill-rule="evenodd" clip-rule="evenodd" d="M31.5227 24.3222C31.523 24.3224 31.5233 24.3227 31.106 24.8744C30.6886 25.4261 30.6888 25.4262 30.689 25.4263L30.6882 25.4258L30.6831 25.4219L30.6586 25.4038C30.636 25.3873 30.6011 25.362 30.5543 25.3287C30.4606 25.2623 30.3191 25.1642 30.1335 25.0419C29.762 24.7972 29.2141 24.4557 28.5175 24.0753C27.1224 23.3136 25.1407 22.4014 22.7911 21.7943C18.1049 20.5833 11.9798 20.5859 6.0648 25.4104L5.19031 24.3383C11.5352 19.1632 18.1493 19.1658 23.1373 20.4547C25.6249 21.0975 27.714 22.0602 29.1805 22.861C29.9147 23.2618 30.4953 23.6235 30.8946 23.8865C31.0943 24.0181 31.2489 24.1251 31.3548 24.2003C31.4077 24.2378 31.4485 24.2674 31.4768 24.2881L31.5096 24.3124L31.5189 24.3193L31.5217 24.3214L31.5227 24.3222Z" fill="#2D2D2D"/>
<path fill-rule="evenodd" clip-rule="evenodd" d="M31.5224 31.012C31.5227 31.0122 31.523 31.0125 31.1059 31.5644C30.6889 32.1163 30.6891 32.1164 30.6892 32.1165L30.6885 32.116L30.6833 32.1121L30.6588 32.0941C30.6363 32.0776 30.6014 32.0522 30.5545 32.019C30.4608 31.9526 30.3194 31.8547 30.1337 31.7325C29.7622 31.488 29.2144 31.1469 28.5177 30.7669C27.1227 30.0059 25.1409 29.0946 22.7913 28.4881C18.1049 27.2783 11.9796 27.2809 6.06451 32.1006L5.19055 31.0281C11.5354 25.8582 18.1493 25.8608 23.1371 27.1485C25.6246 27.7906 27.7137 28.7523 29.1803 29.5523C29.9144 29.9527 30.495 30.314 30.8943 30.5768C31.094 30.7082 31.2486 30.8151 31.3545 30.8902C31.4074 30.9277 31.4482 30.9573 31.4765 30.9779L31.5093 31.0022L31.5186 31.0091L31.5214 31.0112L31.5224 31.012Z" fill="#2D2D2D"/>
</svg>
