<svg width="53" height="52" viewBox="0 0 53 52" fill="none" xmlns="http://www.w3.org/2000/svg">
<path d="M1 42.4079C1.04236 42.8385 2.41202 43.8552 2.645 44.1023C3.44985 44.886 4.26882 45.6555 5.08779 46.418C6.73044 47.9477 8.37779 49.475 10.0299 51C10.0299 51 12.5221 48.882 12.7833 48.6561C14.1953 47.5547 15.7344 46.2697 17.4924 45.832C17.7696 45.7552 18.0531 45.7032 18.3396 45.6767C21.1283 45.4014 24.0512 45.6132 26.8682 45.479C29.0183 45.471 31.1636 45.2726 33.2787 44.886C34.9925 44.4164 36.6497 43.7606 38.2208 42.9303C41.9423 41.264 45.3723 39.0114 48.3803 36.2585C49.0863 35.609 50.0747 34.6559 49.7005 33.6039C48.8251 31.0976 45.0055 32.1496 43.3111 32.8273C42.2379 33.2857 41.2017 33.8262 40.2117 34.4441C38.0937 35.6796 35.6227 37.4517 33.1517 37.6211C30.6806 37.7906 27.8636 38.1224 25.4985 37.3034C25.7174 36.9716 26.3457 36.8375 26.734 36.7033C28.0119 36.2727 29.318 35.9479 30.6241 35.6372C31.884 35.2371 33.013 34.5056 33.893 33.5192C34.2278 33.181 34.4828 32.7721 34.6391 32.3225C34.7955 31.873 34.8493 31.3942 34.7967 30.9211C34.7313 30.3124 34.4854 29.737 34.0906 29.269C33.1799 28.563 30.8289 29.1561 29.7416 29.269C27.8636 29.502 26.0492 29.9327 24.1924 30.2857C20.7917 30.9107 17.3422 31.232 13.8847 31.2459C13.8847 31.2459 9.90983 31.0341 7.53058 33.8581C5.32784 36.5927 3.18157 39.3673 1.09178 42.1819C1.04473 42.2362 1.01304 42.302 1 42.3726V42.4079Z" stroke="#231F20" stroke-width="1.5" stroke-linecap="round" stroke-linejoin="round"/>
<path d="M31.6125 25.3366C31.4643 25.8096 30.5323 25.6331 30.2005 25.5978C27.7167 25.2859 25.3945 24.1989 23.564 22.4914C22.0166 21.2993 20.6679 19.8695 19.568 18.2553C17.6593 15.3385 16.6007 11.9476 16.511 8.46296C16.984 8.46296 26.967 8.23703 31.4925 15.7772C32.9024 18.1947 33.5885 20.9661 33.4693 23.7622C33.4693 23.9599 33.3775 24.2211 33.2081 24.2846C32.6151 24.5035 31.3795 22.1666 30.0452 20.3592C28.6116 18.4404 26.8558 16.7849 24.856 15.4666C26.2531 16.7367 27.5425 18.1205 28.7108 19.6038C29.43 20.4614 30.0726 21.3803 30.6312 22.3502C31.0792 23.2064 31.4048 24.1214 31.5984 25.0683C31.6267 25.1549 31.6316 25.2475 31.6125 25.3366Z" fill="#1D94A8" stroke="#2D2D2D" stroke-width="1.5" stroke-linecap="round" stroke-linejoin="round"/>
<path d="M32.7422 12.5225C32.6433 12.8473 32.0362 12.7273 31.775 12.7061C30.0793 12.4929 28.4937 11.7519 27.2424 10.588C26.1873 9.77308 25.2656 8.7989 24.5101 7.70047C23.1997 5.70521 22.4666 3.38638 22.3921 1.00044C22.7169 1.00044 29.544 0.852178 32.6292 5.99898C33.5919 7.64922 34.0622 9.54045 33.9848 11.4494C33.9848 11.5906 33.9283 11.7671 33.8083 11.8094C33.4058 11.9577 32.5586 10.3551 31.6479 9.1266C30.673 7.81783 29.4786 6.68797 28.1178 5.78718C29.0787 6.65183 29.9644 7.59658 30.7654 8.61122C31.2515 9.19625 31.6861 9.82222 32.0644 10.4821C32.3675 11.068 32.5885 11.6928 32.721 12.3389C32.7457 12.3968 32.753 12.4606 32.7422 12.5225Z" fill="#1D94A8" stroke="#2D2D2D" stroke-width="1.5" stroke-linecap="round" stroke-linejoin="round"/>
<path d="M35.8274 19.7379C35.9827 20.2321 36.95 20.0486 37.31 20.0133C39.9047 19.6903 42.3311 18.5562 44.2431 16.7727C45.8554 15.5306 47.2613 14.0413 48.4085 12.3601C50.3921 9.31423 51.4919 5.7778 51.5855 2.14417C51.0913 2.14417 40.6777 1.91825 35.9616 9.76907C34.4863 12.2949 33.7683 15.1916 33.893 18.1141C33.893 18.3188 33.9847 18.5942 34.1683 18.6577C34.7825 18.8836 36.0745 16.4409 37.4654 14.5629C38.958 12.5623 40.7881 10.8373 42.8734 9.46548C41.407 10.7906 40.0538 12.2359 38.828 13.7863C38.0889 14.6814 37.4275 15.638 36.8511 16.6456C36.3859 17.5358 36.0461 18.4862 35.8415 19.4696C35.8159 19.5567 35.811 19.6486 35.8274 19.7379Z" fill="#1D94A8" stroke="#2D2D2D" stroke-width="1.5" stroke-linecap="round" stroke-linejoin="round"/>
</svg>
