<svg width="58" height="47" viewBox="0 0 58 47" fill="none" xmlns="http://www.w3.org/2000/svg">
<path d="M56.6871 8.48703C55.6622 8.6011 54.6267 8.57688 53.6084 8.41501C53.6084 8.41501 41.3205 0.853238 38.8089 1.1323C38.8089 1.1323 31.4182 0.0340455 28.2044 4.16601C28.2044 4.16601 24.6036 7.61382 21.2098 15.2116C21.2098 15.2116 19.7784 20.6129 25.5398 18.4434C25.5398 18.4434 32.0213 11.0886 35.19 9.64829" stroke="#1D94A8" stroke-width="1.5" stroke-linecap="round" stroke-linejoin="round"/>
<path d="M37.0894 18.4884C39.3669 20.9639 41.5274 23.6646 43.967 25.9871C44.8672 26.8243 44.7051 27.4995 44.7232 28.5887V31.0913V35.1513C44.9237 35.7594 45.3109 36.2887 45.8297 36.6639C46.3485 37.0392 46.9725 37.2411 47.6128 37.2411C48.2531 37.2411 48.8771 37.0392 49.3959 36.6639C49.9148 36.2887 50.302 35.7594 50.5025 35.1513L50.4305 27.1034C50.4305 24.5648 49.0802 23.0074 47.5228 21.162C46.0693 19.433 44.4896 17.8142 42.7967 16.3189C40.9333 14.5184 39.2499 12.9881 37.8005 11.6378L36.3152 10.8996" stroke="black" stroke-width="1.5" stroke-linecap="round" stroke-linejoin="round"/>
<path d="M44.7142 27.9136V32.1356V35.4574C44.7831 36.3047 44.7981 37.1557 44.7592 38.0049C44.687 38.3924 44.5308 38.7593 44.3017 39.08C44.0725 39.4007 43.776 39.6673 43.4329 39.8612C43.0897 40.0551 42.7083 40.1715 42.3154 40.2023C41.9225 40.2331 41.5276 40.1775 41.1584 40.0394C40.3769 39.6279 39.7278 39.0038 39.286 38.239V40.7596C39.1228 41.2533 38.8206 41.6894 38.4157 42.0155C38.0107 42.3416 37.5203 42.544 37.0032 42.5981C36.486 42.6523 35.9643 42.5561 35.5005 42.321C35.0368 42.0858 34.6508 41.7219 34.3888 41.2727L34.3438 39.7694" stroke="black" stroke-width="1.5" stroke-linecap="round" stroke-linejoin="round"/>
<path d="M1 8.86512L7.22045 8.91013C7.99679 8.95455 8.77471 8.85693 9.51599 8.62207C10.2405 8.24463 10.8878 7.73471 11.4244 7.11872C12.8203 5.91155 14.4087 4.94696 16.1235 4.26505C19.5354 2.99807 23.2204 2.65037 26.809 3.25681" stroke="black" stroke-width="1.5" stroke-linecap="round" stroke-linejoin="round"/>
<path d="M8.17467 31.9825L15.4304 24.4658C15.9478 24.0485 16.5969 23.829 17.2614 23.8464C17.9259 23.8639 18.5625 24.1173 19.0573 24.5612C19.5521 25.0051 19.8728 25.6106 19.9621 26.2694C20.0513 26.9281 19.9032 27.5971 19.5443 28.1566L12.0276 36.0875C11.466 36.469 10.7868 36.6377 10.1119 36.5634C9.43711 36.4892 8.81086 36.1768 8.34566 35.6823C7.88047 35.1878 7.6068 34.5437 7.57381 33.8656C7.54082 33.1875 7.75067 32.5198 8.16567 31.9825H8.17467Z" stroke="#1D94A8" stroke-width="1.5" stroke-linecap="round" stroke-linejoin="round"/>
<path d="M17.2848 39.0132L27.8713 27.3104C28.2958 26.7657 28.5032 26.083 28.4535 25.3942C28.4038 24.7055 28.1005 24.0596 27.6022 23.5815C27.104 23.1033 26.4461 22.827 25.7559 22.8057C25.0657 22.7845 24.3921 23.0199 23.8654 23.4665L12.9278 35.5023C12.6474 36.0885 12.5734 36.7523 12.7179 37.3858C12.8624 38.0193 13.2168 38.5854 13.7236 38.9921C14.2304 39.3988 14.8597 39.6222 15.5095 39.626C16.1593 39.6298 16.7913 39.4138 17.3028 39.0132H17.2848Z" stroke="#1D94A8" stroke-width="1.5" stroke-linecap="round" stroke-linejoin="round"/>
<path d="M35.4331 27.9136C35.8444 27.3471 36.0369 26.651 35.975 25.9537C35.913 25.2564 35.6008 24.6051 35.096 24.1201C34.5912 23.635 33.928 23.3491 33.2288 23.315C32.5296 23.2809 31.8417 23.501 31.2921 23.9346L18.05 38.167C17.683 38.7691 17.5414 39.482 17.6505 40.1787C17.7596 40.8754 18.1123 41.5109 18.6458 41.972C19.1793 42.4332 19.8591 42.6902 20.5643 42.6973C21.2695 42.7044 21.9543 42.4612 22.497 42.0109L35.4331 27.9136Z" stroke="#1D94A8" stroke-width="1.5" stroke-linecap="round" stroke-linejoin="round"/>
<path d="M35.8111 36.4656C36.3256 35.8781 36.5938 35.1149 36.5598 34.3347C36.5257 33.5546 36.1922 32.8176 35.6285 32.2771C35.0649 31.7366 34.3145 31.4343 33.5336 31.4331C32.7527 31.4319 32.0014 31.7319 31.4361 32.2706L22.497 42.0109C22.2797 42.6112 22.2585 43.2649 22.4364 43.8781C22.6144 44.4912 22.9823 45.032 23.4872 45.4227C23.9316 45.7454 24.4555 45.941 25.0026 45.9886C25.5498 46.0362 26.0996 45.9339 26.593 45.6927L35.8111 36.4656Z" stroke="#1D94A8" stroke-width="1.5" stroke-linecap="round" stroke-linejoin="round"/>
<path d="M1 31.2984H8.84083" stroke="black" stroke-width="1.5" stroke-linecap="round" stroke-linejoin="round"/>
<path d="M56.6871 31.0913H53.8064L52.3931 31.7305" stroke="#1D94A8" stroke-width="1.5" stroke-linecap="round" stroke-linejoin="round"/>
</svg>
