<svg width="54" height="52" viewBox="0 0 54 52" fill="none" xmlns="http://www.w3.org/2000/svg">
<path fill-rule="evenodd" clip-rule="evenodd" d="M13.3642 30.5823C13.5483 30.7725 13.7227 30.9526 13.8851 31.1114L13.8969 31.123L16.4917 33.742L19.619 36.7975C19.7883 36.947 19.9267 37.1285 20.0261 37.3317C20.0423 37.3648 20.0567 37.3987 20.0693 37.4334C20.1476 37.649 20.1824 37.8778 20.1719 38.1067V45.3242C20.1719 45.8973 19.7073 46.3619 19.1342 46.3619C18.5611 46.3619 18.0965 45.8973 18.0965 45.3242V38.2115L15.0232 35.2088L12.4283 32.5895C12.17 32.3368 11.9418 32.1009 11.7295 31.8814C11.2647 31.4009 10.8761 30.9991 10.4145 30.6717C9.85494 30.2747 9.29835 30.0822 8.53613 30.2287C8.28886 30.3287 8.0755 30.4986 7.92248 30.7182C7.7577 30.9546 7.67121 31.2368 7.6752 31.525C7.67558 31.5524 7.67487 31.5797 7.67309 31.607C7.64849 31.9834 7.73339 32.2044 7.87398 32.411C8.03959 32.6544 8.2724 32.8707 8.65221 33.2235C8.69249 33.2609 8.73442 33.2999 8.77809 33.3405L12.9332 37.2138C13.3524 37.6046 13.3755 38.2612 12.9847 38.6804C12.5939 39.0996 11.9373 39.1226 11.5181 38.7319L7.36364 34.8592C7.36353 34.8591 7.36375 34.8593 7.36364 34.8592C7.32123 34.8197 7.2768 34.7787 7.23143 34.7369C6.88558 34.4179 6.46592 34.0308 6.15815 33.5785C5.77347 33.0131 5.55324 32.3485 5.59973 31.512C5.5985 30.8042 5.81478 30.1128 6.21979 29.5316C6.63277 28.939 7.22118 28.4908 7.90222 28.2501C7.94379 28.2354 7.98626 28.2234 8.02936 28.2141C9.5099 27.895 10.6678 28.3069 11.6152 28.979C12.2432 29.4244 12.8428 30.0438 13.3642 30.5823Z" fill="black"/>
<path fill-rule="evenodd" clip-rule="evenodd" d="M4.09497 18.1173C4.433 18.0016 4.88213 18.0922 5.33499 18.4877C5.79998 18.8938 6.05083 19.444 6.05083 19.8399C6.05083 21.6263 6.07825 23.4199 6.10549 25.2019C6.11449 25.7907 6.12348 26.3783 6.13144 26.9639C6.13924 27.5369 6.6101 27.9951 7.18314 27.9873C7.75617 27.9795 8.21439 27.5087 8.2066 26.9356C8.19852 26.3422 8.18946 25.7496 8.18042 25.1579C8.15324 23.3799 8.12617 21.609 8.12617 19.8399C8.12617 18.714 7.50742 17.6297 6.70021 16.9246C5.88486 16.2125 4.66312 15.7133 3.39176 16.1646L3.37204 16.1719C2.62541 16.4541 1.97679 16.947 1.50494 17.5908C1.03309 18.2345 0.758326 19.0015 0.714011 19.7984C0.712944 19.8176 0.71241 19.8368 0.71241 19.856V19.9929L0.712788 20.0209C0.803569 23.3851 0.773381 26.7375 0.743009 30.1102C0.727962 31.7812 0.712869 33.4572 0.71242 35.1422C0.688063 35.3376 0.693825 35.5358 0.729706 35.7298C0.748416 35.831 0.782074 35.9289 0.829575 36.0201C0.928789 36.2108 1.05936 36.3834 1.21577 36.5306C3.2273 38.531 5.22562 40.5456 7.22607 42.5624C8.08557 43.4289 8.94547 44.2958 9.80698 45.1622C10.2111 45.5685 10.8681 45.5704 11.2745 45.1663C11.6808 44.7622 11.6827 44.1052 11.2786 43.6988C10.4211 42.8365 9.56346 41.9719 8.70515 41.1066C6.73835 39.1237 4.76798 37.1373 2.78776 35.1671C2.78807 33.5137 2.80299 31.8498 2.81797 30.1802C2.8484 26.7888 2.87904 23.3743 2.78775 19.9789V19.8878C2.81414 19.5014 2.94967 19.1303 3.17882 18.8176C3.4108 18.5011 3.72884 18.258 4.09497 18.1173Z" fill="black"/>
<path fill-rule="evenodd" clip-rule="evenodd" d="M5.608 47.306H21.8306V51.8382H19.7552V49.3814H7.68334V51.8382H5.608V47.306Z" fill="black"/>
<path fill-rule="evenodd" clip-rule="evenodd" d="M31.6479 47.306H47.8705V51.8382H45.7951V49.3814H33.7233V51.8382H31.6479V47.306Z" fill="black"/>
<path d="M25.7287 6.7314C26.2005 5.33412 27.0339 4.08672 28.1443 3.11609C28.7943 2.5531 29.5312 2.09901 30.3263 1.77142C32.3896 1.13456 34.6086 1.22264 36.6149 2.02103C38.1422 2.78387 39.4206 3.96602 40.3005 5.42908C41.1803 6.89215 41.6251 8.57558 41.5829 10.2823C41.5829 13.962 39.9725 16.8929 37.8468 19.7755C36.2791 21.9215 34.4385 23.8541 32.3715 25.5246C30.6592 26.9252 28.8084 28.1474 26.8479 29.1721C21.2116 26.2251 17.097 21.6999 13.9648 16.289C12.435 13.6399 11.3882 10.6527 12.4108 7.61711C12.7104 6.62475 13.1819 5.69269 13.8038 4.86336C14.8364 3.49204 16.2304 2.43534 17.8298 1.81168C18.5601 1.56885 19.3171 1.41475 20.0843 1.35272C21.246 1.28992 22.4098 1.43164 23.5225 1.77142C24.1578 1.95567 24.7647 2.22661 25.3261 2.57661C25.7082 2.80984 26.0668 3.0795 26.397 3.3818" fill="#1D94A8"/>
<path fill-rule="evenodd" clip-rule="evenodd" d="M20.1541 2.38814C19.4834 2.44346 18.8215 2.5777 18.1822 2.78806C16.773 3.34279 15.5447 4.27675 14.6334 5.48671C14.0846 6.21867 13.6686 7.04125 13.4042 7.91702C13.401 7.92753 13.3977 7.93798 13.3942 7.94838C12.5171 10.5521 13.3795 13.2006 14.8634 15.7701C17.8316 20.8974 21.6708 25.1573 26.8486 27.9955C28.5686 27.0582 30.1977 25.9621 31.7145 24.7214L31.7193 24.7175C33.7162 23.1037 35.4944 21.2366 37.0089 19.1634L37.0117 19.1596C39.0927 16.3376 40.5452 13.6288 40.5452 10.2823L40.5455 10.2566C40.5829 8.747 40.1894 7.25796 39.4112 5.96385C38.6405 4.68225 37.524 3.64434 36.1903 2.96902C34.4297 2.27899 32.488 2.2015 30.678 2.74898C30.0038 3.03214 29.3785 3.42022 28.8254 3.8989C27.854 4.74869 27.1247 5.84047 26.7118 7.06335C26.5285 7.60633 25.9397 7.89787 25.3967 7.71454C24.8538 7.5312 24.5622 6.94242 24.7455 6.39944C25.0048 5.63157 25.3612 4.90395 25.8037 4.23326C25.7665 4.20729 25.7306 4.17858 25.6962 4.14713C25.4154 3.89002 25.1104 3.66068 24.7854 3.46231L24.7771 3.45719L24.7771 3.45715C24.2966 3.15761 23.7772 2.92572 23.2334 2.76803L23.2194 2.76395L23.2194 2.76385C22.2273 2.4609 21.1899 2.33376 20.1541 2.38814ZM27.1256 2.64297C27.2349 2.53772 27.3468 2.43497 27.4613 2.33484L27.4649 2.33169L27.4649 2.33169C28.1996 1.69542 29.0324 1.18221 29.931 0.811982C29.9603 0.799935 29.9901 0.789232 30.0203 0.779905C32.3098 0.0731973 34.7722 0.170937 36.9985 1.05689C37.0257 1.0677 37.0524 1.07965 37.0785 1.0927C38.7822 1.94364 40.2083 3.2623 41.1897 4.89431C42.1689 6.52261 42.6651 8.3956 42.6206 10.2949C42.6169 14.301 40.8508 17.45 38.6833 20.3895C37.0634 22.6067 35.1617 24.6035 33.0262 26.3297C31.2599 27.7742 29.3508 29.0348 27.3286 30.0917C27.0274 30.2491 26.6682 30.2491 26.3671 30.0916C20.5164 27.0326 16.2719 22.3458 13.0668 16.8089L13.0662 16.808C11.4928 14.0834 10.2631 10.7633 11.4222 7.30149C11.7571 6.19874 12.2821 5.16293 12.9736 4.24082L12.9748 4.23916C14.1234 2.7139 15.6739 1.53859 17.4528 0.844912C17.4691 0.838522 17.4857 0.83255 17.5024 0.827001C18.3117 0.557913 19.1505 0.38716 20.0007 0.318421L20.0283 0.316559C21.3089 0.247331 22.5918 0.403131 23.8186 0.776866C24.5414 0.987173 25.2319 1.29558 25.8709 1.69348C26.3086 1.96099 26.7194 2.27009 27.0977 2.61647C27.1072 2.62517 27.1165 2.63401 27.1256 2.64297Z" fill="#1D94A8"/>
<path fill-rule="evenodd" clip-rule="evenodd" d="M42.2241 31.9136C42.0101 32.1348 41.7801 32.3726 41.5193 32.6275L35.849 38.1722V45.3243C35.849 45.8973 35.3844 46.3619 34.8113 46.3619C34.2382 46.3619 33.7736 45.8973 33.7736 45.3243V38.1625C33.7476 37.9667 33.7551 37.7668 33.7961 37.573C33.816 37.4785 33.8491 37.3874 33.8943 37.3021C33.9928 37.116 34.1224 36.9483 34.2774 36.8061L40.0681 31.144C40.2305 30.9852 40.4052 30.8047 40.5894 30.6145C41.1107 30.076 41.7104 29.4566 42.3383 29.0112C43.2858 28.3391 44.4436 27.9272 45.9242 28.2463C45.9673 28.2556 46.0098 28.2676 46.0513 28.2823C46.7324 28.523 47.3208 28.9712 47.7338 29.5638C48.1388 30.145 48.355 30.8364 48.3538 31.5442C48.4003 32.3808 48.1801 33.0453 47.7954 33.6107C47.4876 34.063 47.068 34.4501 46.7221 34.7691C46.6768 34.8109 46.6328 34.8515 46.5904 34.8909C46.5903 34.8911 46.5906 34.8908 46.5904 34.8909L42.4442 38.7634C42.0254 39.1546 41.3688 39.1322 40.9776 38.7133C40.5864 38.2945 40.6088 37.6379 41.0277 37.2467L45.1755 33.3728C45.2191 33.3321 45.2611 33.2931 45.3013 33.2557C45.6812 32.9029 45.914 32.6866 46.0796 32.4432C46.2202 32.2366 46.3051 32.0156 46.2805 31.6393C46.2787 31.612 46.278 31.5846 46.2784 31.5572C46.2823 31.269 46.1959 30.9869 46.0311 30.7504C45.8781 30.5308 45.6647 30.3609 45.4174 30.2609C44.6552 30.1144 44.0986 30.307 43.5391 30.7039C43.0775 31.0313 42.6888 31.4331 42.2241 31.9136Z" fill="black"/>
<path fill-rule="evenodd" clip-rule="evenodd" d="M47.2855 16.9246C48.1009 16.2125 49.3226 15.7133 50.594 16.1646L50.6137 16.1719C51.3603 16.4541 52.0089 16.947 52.4808 17.5908C52.9526 18.2345 53.2274 19.0015 53.2717 19.7984C53.2728 19.8176 53.2733 19.8368 53.2733 19.856V19.9929L53.2729 20.0209C53.1822 23.3851 53.2123 26.7375 53.2427 30.1102C53.2578 31.7877 53.273 33.4702 53.2733 35.1617C53.2961 35.4182 53.2583 35.6768 53.1623 35.9167C53.0642 36.1619 52.9085 36.3796 52.7088 36.5514C50.7044 38.5449 48.713 40.5525 46.7195 42.5623C45.86 43.4288 45 44.2958 44.1385 45.1622C43.7344 45.5685 43.0774 45.5704 42.671 45.1663C42.2646 44.7622 42.2628 44.1052 42.6669 43.6988C43.5244 42.8365 44.382 41.9718 45.2404 41.1065C47.2205 39.1103 49.2042 37.1104 51.198 35.127C51.1974 33.4869 51.1826 31.8363 51.1677 30.1802C51.1373 26.7888 51.1067 23.3743 51.198 19.9789V19.8878C51.1716 19.5014 51.0361 19.1303 50.8069 18.8176C50.5749 18.5011 50.2569 18.258 49.8908 18.1173C49.5527 18.0016 49.1036 18.0922 48.6507 18.4877C48.1857 18.8938 47.9349 19.444 47.9349 19.8399V19.8485C47.9349 22.21 47.9349 24.6001 47.8538 26.985C47.8343 27.5578 47.3542 28.0063 46.7814 27.9868C46.2087 27.9674 45.7601 27.4872 45.7796 26.9145C45.8595 24.5678 45.8596 22.2101 45.8596 19.8399C45.8596 18.714 46.4783 17.6297 47.2855 16.9246Z" fill="black"/>
<path fill-rule="evenodd" clip-rule="evenodd" d="M33.8093 4.72668C33.9737 4.17769 34.552 3.86593 35.101 4.03035L34.8033 5.02439C35.101 4.03035 35.1015 4.03048 35.1019 4.03061L35.1029 4.03089L35.105 4.03153L35.1101 4.03309L35.1238 4.03736L35.1647 4.05058C35.1978 4.06151 35.2423 4.07678 35.2968 4.0967C35.4056 4.13648 35.5549 4.19519 35.7324 4.27551C36.0855 4.43524 36.561 4.68547 37.0531 5.05057C38.0381 5.78132 39.1436 7.01848 39.3687 8.92895C39.4357 9.49811 39.0287 10.0139 38.4595 10.0809C37.8904 10.1479 37.3746 9.74091 37.3076 9.17175C37.1703 8.0064 36.5084 7.23058 35.8166 6.7173C35.4703 6.46039 35.1301 6.28085 34.8769 6.16631C34.7514 6.1095 34.65 6.06995 34.5839 6.04576C34.5509 6.03369 34.5269 6.02554 34.5134 6.02106L34.5011 6.01709C33.9549 5.85086 33.6453 5.27418 33.8093 4.72668Z" fill="black"/>
<path d="M24.1586 12.9234V9.35635H29.4084V12.9234H32.9754V18.1732H29.4084V21.7402H24.1586V18.1732H20.5916V12.9234H24.1586Z" fill="#F4F4F4"/>
</svg>
