<svg width="54" height="53" viewBox="0 0 54 53" fill="none" xmlns="http://www.w3.org/2000/svg">
<path d="M26.8817 5.10395V1.33823" stroke="#1D94A8" stroke-width="1.5" stroke-linecap="round" stroke-linejoin="round"/>
<path d="M50.5283 51.8382L38.6639 43.575C38.5423 43.5066 38.4381 43.4109 38.3597 43.2955C38.2951 43.1622 38.2614 43.0161 38.261 42.8679C38.0965 40.0642 37.8663 37.2605 37.5868 34.465C37.0413 28.5247 36.1601 22.62 34.9475 16.7793C34.3966 14.2304 33.9773 11.3856 32.1684 9.37942C32.0316 9.18234 31.8481 9.02216 31.6344 8.91314C31.4206 8.80411 31.1832 8.74963 30.9433 8.75454C30.7453 8.82034 30.5635 8.92775 30.4104 9.06956C30.2572 9.21137 30.1362 9.3843 30.0554 9.57675C29.1098 11.4185 29.2331 13.5316 29.2907 15.5295C29.3811 17.9879 29.3811 20.4546 29.3811 22.9212L29.2907 25.4947" stroke="black" stroke-width="1.5" stroke-linecap="round" stroke-linejoin="round"/>
<path d="M35.8768 51.8382L32.481 49.0592C31.6013 48.3356 29.4882 47.275 29.3484 46.0992C29.2635 44.3314 29.2937 42.5599 29.4389 40.796C29.4937 37.2276 29.543 33.6647 29.5869 30.1073C29.5869 29.1453 29.8911 25.9962 31.3546 25.9962C32.1275 25.9962 32.999 27.6407 33.2539 30.1566L33.6979 40.1876" stroke="black" stroke-width="1.5" stroke-linecap="round" stroke-linejoin="round"/>
<path d="M42.808 35.4023L48.9499 39.76" stroke="#1D94A8" stroke-width="1.5" stroke-linecap="round" stroke-linejoin="round"/>
<path d="M41.8212 25.9387H52.3126" stroke="#1D94A8" stroke-width="1.5" stroke-linecap="round" stroke-linejoin="round"/>
<path d="M39.9383 19.7557L48.9497 14.4113" stroke="#1D94A8" stroke-width="1.5" stroke-linecap="round" stroke-linejoin="round"/>
<path d="M37.2662 8.75455L39.9384 5.10394" stroke="#1D94A8" stroke-width="1.5" stroke-linecap="round" stroke-linejoin="round"/>
<path d="M3.00482 51.8382L14.8693 43.5751C14.9917 43.5045 15.0981 43.4093 15.1817 43.2955C15.2399 43.1604 15.2706 43.0151 15.2722 42.868C15.4366 40.0642 15.6668 37.2605 15.9464 34.465C16.4919 28.5247 17.3731 22.62 18.5857 16.7793C19.1448 14.2305 19.5559 11.3856 21.3647 9.37943C21.5026 9.1834 21.6863 9.024 21.8998 8.9151C22.1133 8.8062 22.3502 8.75109 22.5898 8.75456C22.7887 8.81889 22.9711 8.92577 23.1245 9.06776C23.2778 9.20976 23.3984 9.38345 23.4778 9.57676C24.4316 11.4185 24.3 13.5316 24.2507 15.5295C24.1931 17.9962 24.1931 20.4628 24.1849 22.9294L24.2836 25.5029" stroke="black" stroke-width="1.5" stroke-linecap="round" stroke-linejoin="round"/>
<path d="M17.6566 51.8382L21.0523 49.0592C21.9321 48.3356 24.0534 47.275 24.1932 46.0992C24.2712 44.3312 24.2383 42.5599 24.0945 40.796C24.0342 37.2276 23.9849 33.6647 23.9465 30.1073C23.9465 29.1453 23.6423 25.9962 22.1788 25.9962C21.4059 25.9962 20.5343 27.6407 20.2795 30.1566L19.8355 40.1876" stroke="black" stroke-width="1.5" stroke-linecap="round" stroke-linejoin="round"/>
<path d="M10.7254 35.4023L4.58347 39.76" stroke="#1D94A8" stroke-width="1.5" stroke-linecap="round" stroke-linejoin="round"/>
<path d="M11.7202 25.9387H1.22064" stroke="#1D94A8" stroke-width="1.5" stroke-linecap="round" stroke-linejoin="round"/>
<path d="M13.5949 19.7557L4.58347 14.4113" stroke="#1D94A8" stroke-width="1.5" stroke-linecap="round" stroke-linejoin="round"/>
<path d="M16.2671 8.75455L13.5949 5.10394" stroke="#1D94A8" stroke-width="1.5" stroke-linecap="round" stroke-linejoin="round"/>
</svg>
