<svg width="52" height="52" viewBox="0 0 52 52" fill="none" xmlns="http://www.w3.org/2000/svg">
<path d="M33.2091 47.361L41.5868 38.9833L43.3882 44.8723C44.0152 46.9124 44.6422 48.955 45.2692 51C42.6792 50.2331 40.0603 49.5097 37.4992 48.656C36.074 48.2074 34.6488 47.7661 33.2091 47.361Z" stroke="black" stroke-width="1.5" stroke-linecap="round" stroke-linejoin="round"/>
<path d="M24.2164 38.2164L33.2091 47.361L41.5868 38.9833L33.2091 30.8443C32.2365 30.9725 31.2924 31.2636 30.4165 31.7052C29.4989 32.1782 28.6654 32.7991 27.9495 33.5428C26.5139 34.9101 25.1587 36.3595 23.8909 37.8836L24.2164 38.2164Z" stroke="black" stroke-width="1.5" stroke-linecap="round" stroke-linejoin="round"/>
<path d="M13.5815 27.9505L5.52214 19.6017L1.08008 14.986C0.930505 13.986 0.990924 12.9659 1.25749 11.9906C1.52405 11.0152 1.9909 10.1062 2.62829 9.32128C5.08807 6.39125 8.90795 6.89768 9.13946 6.97002L20.9681 18.7697C20.8963 19.6855 20.6508 20.5792 20.2446 21.4031C19.8094 22.2547 19.2347 23.0274 18.5445 23.6893C17.6952 24.5455 16.7888 25.3432 15.8315 26.0767C15.2889 26.5397 14.5148 27.227 13.5815 27.9505Z" stroke="black" stroke-width="1.5" stroke-linecap="round" stroke-linejoin="round"/>
<path d="M5.52216 19.6017L13.6611 11.4627" stroke="black" stroke-width="1.5" stroke-linecap="round" stroke-linejoin="round"/>
<path d="M7.98914 22.1627L12.0839 18.0679L16.1715 13.9731" stroke="black" stroke-width="1.5" stroke-linecap="round" stroke-linejoin="round"/>
<path d="M23.9054 43.2372C24.165 43.5702 24.2938 43.9867 24.2675 44.4081C24.2413 44.8296 24.0617 45.2268 23.7626 45.525C23.4636 45.8231 23.0658 46.0015 22.6443 46.0265C22.2228 46.0516 21.8067 45.9215 21.4745 45.6608L6.24562 30.403C6.01762 30.0483 5.91799 29.6262 5.96334 29.207C6.00868 28.7878 6.19626 28.3968 6.49483 28.0991C6.7934 27.8014 7.18495 27.6149 7.60428 27.5707C8.02361 27.5266 8.44541 27.6274 8.79944 27.8564L23.9054 43.2372Z" fill="#1D94A8" stroke="black" stroke-width="1.5" stroke-linecap="round" stroke-linejoin="round"/>
<path d="M18.1972 24.0148C19.3077 23.1204 20.1449 21.9323 20.6135 20.5856C20.8102 19.9983 20.9294 19.3879 20.968 18.7697C20.8595 18.0462 19.9118 10.6235 25.4969 5.25542C28.5743 2.3965 32.6571 0.870003 36.8553 1.00869C39.3785 1.13361 41.823 1.92765 43.938 3.3093C49.5014 6.92662 50.4853 13.2135 50.6373 14.2915C50.7313 15.0149 51.5416 21.9023 46.1735 27.01C40.8054 32.1176 33.8746 30.9818 33.209 30.8515C32.6032 30.9153 32.0062 31.0464 31.4293 31.2422C30.028 31.7437 28.7813 32.6014 27.812 33.7309L21.3008 40.546L10.9843 30.1208C12.5903 28.8476 14.2133 27.5043 15.8532 26.0912C16.649 25.3894 17.4303 24.6949 18.1972 24.0148Z" stroke="black" stroke-width="1.5" stroke-linecap="round" stroke-linejoin="round"/>
<path d="M17.5244 36.7478L38.9823 18.068C39.462 17.7321 40.0384 17.5623 40.6235 17.5845C41.2087 17.6067 41.7705 17.8197 42.2234 18.1909C42.5717 18.5014 42.8315 18.8986 42.9763 19.3421C43.1212 19.7856 43.146 20.2596 43.0481 20.7158C42.9535 21.2512 42.6815 21.7391 42.2761 22.1012C41.8707 22.4634 41.3552 22.6787 40.8126 22.7126C40.2364 22.7192 39.6763 22.5227 39.2305 22.1576C38.7846 21.7925 38.4816 21.282 38.3746 20.7158C38.349 20.5553 38.349 20.3917 38.3746 20.2311V13.3871L30.3586 13.6331C29.8114 13.4964 29.3205 13.1921 28.9547 12.7628C28.5889 12.3334 28.3665 11.8005 28.3184 11.2385C28.296 10.7704 28.3972 10.3047 28.6119 9.88818C28.8265 9.47165 29.147 9.11894 29.5411 8.8655C30.003 8.62882 30.5201 8.52074 31.0381 8.55256C31.5562 8.58438 32.0561 8.75494 32.4856 9.04636C33.0223 9.47378 33.3896 10.078 33.5221 10.7511C33.6547 11.4243 33.5437 12.1226 33.209 12.7216L32.8618 13.5535L15.0212 34.2084" stroke="#1D94A8" stroke-width="1.5" stroke-linecap="round" stroke-linejoin="round"/>
<path d="M47.2949 16.2882C47.4124 15.9307 47.4758 15.5576 47.483 15.1813C47.4922 14.8323 47.4507 14.4839 47.36 14.1468" stroke="#1D94A8" stroke-width="1.5" stroke-linecap="round" stroke-linejoin="round"/>
<path d="M46.8102 12.6564C46.8102 12.6564 45.3126 4.58983 35.8208 4.28597" stroke="#1D94A8" stroke-width="1.5" stroke-linecap="round" stroke-linejoin="round"/>
<path d="M16.8805 45.357C16.2507 46.2631 15.4315 47.0216 14.4797 47.58C13.5278 48.1384 12.466 48.4833 11.3677 48.5909C10.3008 48.6507 9.23339 48.4837 8.23576 48.1009C7.23813 47.718 6.33299 47.128 5.58003 46.3698C4.81482 45.5351 4.24152 44.543 3.90033 43.4632C3.55914 42.3834 3.45833 41.242 3.60497 40.1191C3.8824 38.0955 4.91647 36.2523 6.49883 34.9608L16.8805 45.357Z" stroke="black" stroke-width="1.5" stroke-linecap="round" stroke-linejoin="round"/>
<path d="M20.2735 44.5901C20.5489 44.8645 20.7039 45.237 20.7046 45.6257C20.7053 46.0144 20.5515 46.3875 20.2772 46.6628C20.0028 46.9382 19.6303 47.0932 19.2415 47.0939C18.8528 47.0946 18.4798 46.9408 18.2044 46.6665L5.18209 33.6441C4.99563 33.3419 4.9166 32.9857 4.9578 32.633C4.99899 32.2803 5.158 31.9518 5.40908 31.7007C5.66017 31.4496 5.98864 31.2906 6.34133 31.2494C6.69402 31.2082 7.05029 31.2873 7.35248 31.4737L20.2735 44.5901Z" fill="#1D94A8" stroke="black" stroke-width="1.5" stroke-linecap="round" stroke-linejoin="round"/>
<path d="M12.0839 18.068L18.1104 24.1016" stroke="black" stroke-width="1.5" stroke-linecap="round" stroke-linejoin="round"/>
<path d="M27.7831 33.7309L37.3111 43.2589" stroke="black" stroke-width="1.5" stroke-linecap="round" stroke-linejoin="round"/>
<path d="M39.6045 49.3288L43.5618 45.4366C44.1334 47.2886 44.6977 49.1479 45.2692 51L39.6045 49.3288Z" stroke="black" stroke-width="1.5" stroke-linecap="round" stroke-linejoin="round"/>
</svg>
