<svg width="194" height="42" viewBox="0 0 194 42" fill="none" xmlns="http://www.w3.org/2000/svg">
<path d="M6.43996 4.81235C6.43996 4.59696 6.35031 4.57346 6.24508 4.75753L2.9593 10.4361C2.90097 10.5285 2.81416 10.5991 2.71212 10.6373C2.61007 10.6755 2.4984 10.6791 2.39413 10.6475L0.371214 9.95046C0.329153 9.93198 0.283038 9.9248 0.237384 9.92961C0.19173 9.93442 0.148104 9.95107 0.110776 9.97791C0.0734488 10.0048 0.0437007 10.0409 0.0244452 10.0828C0.00518973 10.1246 -0.00291288 10.1708 0.000930886 10.2168V20.1288C0.0145749 20.3752 0.120379 20.6074 0.297157 20.7789L22.9039 40.4501C22.9875 40.5188 23.0922 40.5564 23.2001 40.5564C23.3081 40.5564 23.4128 40.5188 23.4964 40.4501L46.2045 21.1509C46.2426 21.1208 46.2734 21.0825 46.2946 21.0387C46.3157 20.995 46.3267 20.947 46.3267 20.8983C46.3267 20.8496 46.3157 20.8016 46.2946 20.7579C46.2734 20.7141 46.2426 20.6757 46.2045 20.6457L35.3182 11.3995C35.2328 11.3331 35.1279 11.2971 35.02 11.2971C34.912 11.2971 34.8072 11.3331 34.7218 11.3995L23.5431 20.634C23.4552 20.6994 23.3486 20.7348 23.2391 20.7348C23.1296 20.7348 23.0231 20.6994 22.9351 20.634L15.1163 14.4267C15.0265 14.3463 14.9534 14.2489 14.9012 14.14C14.849 14.0311 14.8188 13.913 14.8123 13.7923V11.5404C14.8123 11.3251 14.9487 11.2585 15.1124 11.3955L22.939 17.7516C23.0261 17.8174 23.1321 17.8529 23.2411 17.8529C23.35 17.8529 23.456 17.8174 23.5431 17.7516L34.601 8.61894C34.6869 8.55225 34.7925 8.51607 34.9011 8.51607C35.0097 8.51607 35.1152 8.55225 35.2012 8.61894L46.2006 17.7633C46.3682 17.9004 46.4266 17.8534 46.3331 17.6576L43.8308 12.3707C43.7864 12.2703 43.7762 12.158 43.8015 12.0512C43.8269 11.9444 43.8864 11.8488 43.9711 11.7793L46.1928 10.0797C46.2314 10.0513 46.2629 10.0142 46.2846 9.97134C46.3063 9.92847 46.3176 9.88106 46.3176 9.83297C46.3176 9.78488 46.3063 9.73747 46.2846 9.6946C46.2629 9.65172 46.2314 9.6146 46.1928 9.58625L35.3182 0.108954C35.2346 0.0402344 35.1299 0.00268838 35.0219 0.00268838C34.9139 0.00268838 34.8093 0.0402344 34.7257 0.108954L23.5392 9.69198C23.4557 9.7607 23.351 9.79825 23.243 9.79825C23.135 9.79825 23.0304 9.7607 22.9468 9.69198L11.9942 0.108954C11.9151 0.0387484 11.8132 0 11.7077 0C11.6022 0 11.5003 0.0387484 11.4212 0.108954L8.87214 2.58402C8.70557 2.76716 8.60652 3.00214 8.5915 3.24978V16.1734C8.60544 16.4178 8.70969 16.6482 8.88383 16.8195L22.9468 29.1557C23.0316 29.2234 23.1367 29.2602 23.245 29.2602C23.3533 29.2602 23.4584 29.2234 23.5431 29.1557L34.601 19.929C34.6866 19.8655 34.7921 19.8353 34.8982 19.844C35.0042 19.8526 35.1035 19.8995 35.1778 19.976L36.3004 21.1039C36.3363 21.1386 36.3644 21.1806 36.3829 21.2271C36.4014 21.2736 36.4098 21.3235 36.4076 21.3736C36.4054 21.4236 36.3926 21.4726 36.3701 21.5172C36.3476 21.5619 36.3158 21.6012 36.277 21.6326L23.5392 32.4022C23.4566 32.4714 23.3525 32.5092 23.245 32.5092C23.1375 32.5092 23.0333 32.4714 22.9507 32.4022L6.75957 17.8652C6.59063 17.697 6.48815 17.473 6.47114 17.2347L6.43996 4.81235Z" fill="#1D94A8"/>
<path d="M59.3169 14.9616V11.7495H73.4849V14.9616H68.3061V29.1239H64.5037V14.9616H59.3169Z" fill="#1D94A8"/>
<path d="M83.6852 11.7495L90.1436 29.1239H86.1959L84.8881 25.2548H78.4298L77.0775 29.1239H73.251L79.79 11.7495H83.6852ZM83.9032 22.4077L81.7235 16.0323H81.6751L79.4227 22.4077H83.9032Z" fill="#1D94A8"/>
<path d="M97.2599 11.7495V25.9118H105.688V29.1239H93.4575V11.7495H97.2599Z" fill="#1D94A8"/>
<path d="M113.45 11.7495V29.1239H109.647V11.7495H113.45Z" fill="#1D94A8"/>
<path d="M121.127 11.7495V20.4124L129.895 11.7495H132.874L125.584 18.7577L133.184 29.1239H130.278L124.009 20.3394L121.127 23.0404V29.1239H118.827V11.7495H121.127Z" fill="#1D94A8"/>
<path d="M144.038 11.7495L150.795 29.1239H148.252L146.363 23.8921H139.049L137.111 29.1239H134.762L141.495 11.7495H144.038ZM145.653 21.9454L142.771 13.8341H142.722L139.792 21.9454H145.653Z" fill="#1D94A8"/>
<path d="M162.965 14.122C162.099 13.5328 161.067 13.2385 160.022 13.2825C159.542 13.282 159.064 13.331 158.593 13.4285C158.152 13.5152 157.73 13.68 157.346 13.9151C156.984 14.1411 156.684 14.4549 156.474 14.8277C156.244 15.2654 156.131 15.7562 156.147 16.2512C156.127 16.7309 156.297 17.1991 156.62 17.5531C156.976 17.9114 157.406 18.1881 157.879 18.3642C158.456 18.5905 159.052 18.7656 159.659 18.8874C160.321 19.0253 160.994 19.1753 161.677 19.3375C162.361 19.4998 163.034 19.6904 163.696 19.9094C164.33 20.1157 164.93 20.4165 165.476 20.8016C165.998 21.1669 166.432 21.6468 166.743 22.2049C167.08 22.8665 167.242 23.6037 167.215 24.3462C167.239 25.1802 167.025 26.0035 166.598 26.7188C166.197 27.3725 165.655 27.927 165.011 28.341C164.345 28.7632 163.612 29.0677 162.844 29.2414C162.062 29.4261 161.262 29.52 160.458 29.5212C159.53 29.5266 158.605 29.4038 157.709 29.1562C156.888 28.9337 156.116 28.5581 155.433 28.049C154.774 27.5484 154.243 26.8979 153.883 26.151C153.486 25.2975 153.291 24.3633 153.314 23.4216H155.493C155.476 24.0759 155.622 24.7241 155.917 25.3074C156.187 25.8197 156.568 26.2645 157.031 26.6093C157.517 26.9618 158.065 27.2178 158.646 27.3636C159.263 27.5263 159.897 27.6081 160.535 27.607C161.059 27.6063 161.582 27.5574 162.097 27.461C162.593 27.3737 163.072 27.2052 163.514 26.9621C163.964 26.7219 164.335 26.3568 164.584 25.9102C164.834 25.4636 164.95 24.9545 164.919 24.4436C164.942 23.9155 164.775 23.3967 164.446 22.9836C164.1 22.5877 163.67 22.2758 163.187 22.071C162.614 21.8203 162.018 21.6287 161.407 21.4992L159.389 21.049C158.702 20.8949 158.03 20.7165 157.37 20.5137C156.744 20.3245 156.145 20.0517 155.59 19.7025C155.075 19.3791 154.643 18.9371 154.331 18.4128C153.997 17.8074 153.833 17.1216 153.859 16.4296C153.838 15.6378 154.022 14.8541 154.391 14.1544C154.737 13.5249 155.221 12.9837 155.808 12.5727C156.417 12.1545 157.093 11.8457 157.806 11.6602C158.561 11.4571 159.338 11.3548 160.119 11.356C160.953 11.349 161.784 11.4554 162.59 11.6724C163.315 11.8668 163.995 12.2061 164.588 12.6701C165.165 13.1296 165.629 13.7166 165.944 14.3856C166.295 15.1618 166.48 16.0031 166.489 16.8555H164.309C164.18 15.5928 163.732 14.6817 162.965 14.122Z" fill="#1D94A8"/>
<path d="M174.215 11.7495V29.1239H171.934V11.7495H174.215Z" fill="#1D94A8"/>
<path d="M182.207 11.7495V19.22H191.309V11.7495H193.61V29.1239H191.309V21.1667H182.207V29.1239H179.906V11.7495H182.207Z" fill="#1D94A8"/>
</svg>
