<svg width="25" height="23" viewBox="0 0 25 23" fill="none" xmlns="http://www.w3.org/2000/svg">
<path d="M3.45931 2.63534C3.45931 2.51738 3.41115 2.50452 3.35462 2.60531L1.58963 5.71499C1.55829 5.76558 1.51166 5.80429 1.45685 5.8252C1.40203 5.84611 1.34205 5.84808 1.28604 5.8308L0.199402 5.44906C0.176809 5.43894 0.152038 5.43501 0.127514 5.43764C0.102991 5.44028 0.0795558 5.4494 0.0595049 5.4641C0.039454 5.4788 0.0234744 5.49858 0.0131311 5.52151C0.00278773 5.54444 -0.00156469 5.56972 0.000500037 5.59489V11.0229C0.00782907 11.1579 0.064663 11.285 0.159622 11.3789L12.3031 22.1513C12.348 22.1889 12.4043 22.2094 12.4623 22.2094C12.5203 22.2094 12.5765 22.1889 12.6214 22.1513L24.8193 11.5826C24.8398 11.5662 24.8563 11.5452 24.8677 11.5212C24.8791 11.4973 24.885 11.471 24.885 11.4443C24.885 11.4177 24.8791 11.3914 24.8677 11.3674C24.8563 11.3434 24.8398 11.3224 24.8193 11.306L18.9716 6.24256C18.9258 6.20622 18.8694 6.1865 18.8114 6.1865C18.7535 6.1865 18.6971 6.20622 18.6513 6.24256L12.6465 11.2995C12.5993 11.3354 12.542 11.3548 12.4832 11.3548C12.4244 11.3548 12.3671 11.3354 12.3199 11.2995L8.11991 7.90034C8.07167 7.85632 8.0324 7.80296 8.00438 7.74334C7.97635 7.68371 7.96011 7.619 7.9566 7.55292V6.31977C7.9566 6.20182 8.02988 6.16536 8.11781 6.24042L12.322 9.72112C12.3688 9.75713 12.4257 9.77661 12.4842 9.77661C12.5428 9.77661 12.5997 9.75713 12.6465 9.72112L18.5864 4.71989C18.6325 4.68337 18.6892 4.66356 18.7476 4.66356C18.8059 4.66356 18.8626 4.68337 18.9088 4.71989L24.8172 9.72755C24.9073 9.80261 24.9387 9.77687 24.8884 9.66964L23.5443 6.77443C23.5205 6.71944 23.5149 6.65798 23.5286 6.59947C23.5422 6.54096 23.5742 6.48866 23.6196 6.45059L24.8131 5.51983C24.8338 5.5043 24.8507 5.48397 24.8624 5.4605C24.874 5.43702 24.8801 5.41106 24.8801 5.38472C24.8801 5.35839 24.874 5.33242 24.8624 5.30895C24.8507 5.28547 24.8338 5.26514 24.8131 5.24961L18.9716 0.059665C18.9267 0.0220331 18.8705 0.00147221 18.8125 0.00147221C18.7545 0.00147221 18.6983 0.0220331 18.6534 0.059665L12.6444 5.30752C12.5995 5.34515 12.5433 5.36571 12.4853 5.36571C12.4273 5.36571 12.3711 5.34515 12.3262 5.30752L6.44285 0.059665C6.40037 0.0212193 6.34564 0 6.28896 0C6.23228 0 6.17755 0.0212193 6.13507 0.059665L4.76578 1.41506C4.67631 1.51535 4.62311 1.64403 4.61504 1.77964V8.85684C4.62253 8.99071 4.67852 9.11689 4.77207 9.2107L12.3262 15.9662C12.3717 16.0033 12.4282 16.0234 12.4863 16.0234C12.5445 16.0234 12.601 16.0033 12.6465 15.9662L18.5864 10.9135C18.6323 10.8787 18.689 10.8622 18.746 10.8669C18.803 10.8717 18.8563 10.8974 18.8962 10.9393L19.4992 11.5569C19.5185 11.5759 19.5336 11.5989 19.5436 11.6244C19.5535 11.6498 19.558 11.6772 19.5568 11.7046C19.5556 11.732 19.5488 11.7588 19.5367 11.7832C19.5246 11.8077 19.5075 11.8292 19.4867 11.8464L12.6444 17.7441C12.6 17.7819 12.5441 17.8027 12.4863 17.8027C12.4286 17.8027 12.3727 17.7819 12.3283 17.7441L3.63099 9.78331C3.54025 9.69122 3.48519 9.56854 3.47606 9.43803L3.45931 2.63534Z" fill="#1D94A8"/>
</svg>
