<svg width="45" height="36" viewBox="0 0 45 36" fill="none" xmlns="http://www.w3.org/2000/svg">
<path d="M35.2174 18.0814C32.8261 17.8643 30.8696 16.9412 29.3478 15.3122C27.8261 13.6833 27.0652 11.6199 27.0652 9.12217C27.0652 6.40724 27.8804 4.181 29.5109 2.44344C31.1413 0.814482 33.2065 -1.03102e-06 35.7065 -8.12462e-07C38.5326 -5.65397e-07 40.8152 1.03167 42.5544 3.09502C44.1848 5.15837 45 8.36199 45 12.7059C45 21.0679 42.2283 28.2896 36.6848 34.371C35.5978 35.457 34.3478 36 32.9348 36C31.7391 36 30.7065 35.5656 29.837 34.6968C28.9674 33.9367 28.5326 33.0136 28.5326 31.9276C28.5326 30.733 28.9674 29.7014 29.837 28.8326C32.663 25.9005 34.4565 22.3167 35.2174 18.0814ZM8.15217 18.0814C5.76087 17.8643 3.80435 16.9412 2.28261 15.3122C0.76087 13.6833 2.13138e-06 11.6199 2.34973e-06 9.12217C2.58708e-06 6.40724 0.815226 4.181 2.44566 2.44344C4.07609 0.81448 6.14131 -3.39713e-06 8.64131 -3.17858e-06C11.4674 -2.93151e-06 13.75 1.03167 15.4891 3.09502C17.1196 5.15837 17.9348 8.36199 17.9348 12.7059C17.9348 21.0679 15.163 28.2896 9.61956 34.371C8.53261 35.457 7.28261 36 5.86956 36C4.67391 36 3.6413 35.5656 2.77174 34.6968C1.90218 33.9367 1.4674 33.0136 1.4674 31.9276C1.4674 30.733 1.90218 29.7013 2.77174 28.8326C5.59782 25.9004 7.3913 22.3167 8.15217 18.0814Z" fill="#E0C78C"/>
</svg>
