<svg width="45" height="36" viewBox="0 0 45 36" fill="none" xmlns="http://www.w3.org/2000/svg">
<path d="M9.78261 17.9186C12.1739 18.1357 14.1304 19.0588 15.6522 20.6878C17.1739 22.3167 17.9348 24.3801 17.9348 26.8778C17.9348 29.5928 17.1196 31.819 15.4891 33.5566C13.8587 35.1855 11.7935 36 9.29348 36C6.46739 36 4.18478 34.9683 2.44565 32.905C0.815217 30.8416 0 27.638 0 23.2941C0 14.9321 2.77174 7.7104 8.31522 1.62896C9.40217 0.542986 10.6522 0 12.0652 0C13.2609 0 14.2935 0.434388 15.163 1.30317C16.0326 2.06335 16.4674 2.98642 16.4674 4.0724C16.4674 5.26697 16.0326 6.29865 15.163 7.16743C12.337 10.0995 10.5435 13.6833 9.78261 17.9186ZM36.8478 17.9186C39.2391 18.1357 41.1957 19.0588 42.7174 20.6878C44.2391 22.3167 45 24.3801 45 26.8778C45 29.5928 44.1848 31.819 42.5543 33.5566C40.9239 35.1855 38.8587 36 36.3587 36C33.5326 36 31.25 34.9683 29.5109 32.905C27.8804 30.8416 27.0652 27.638 27.0652 23.2941C27.0652 14.9321 29.837 7.7104 35.3804 1.62896C36.4674 0.542986 37.7174 0 39.1304 0C40.3261 0 41.3587 0.434388 42.2283 1.30317C43.0978 2.06335 43.5326 2.98642 43.5326 4.0724C43.5326 5.26697 43.0978 6.29865 42.2283 7.16743C39.4022 10.0995 37.6087 13.6833 36.8478 17.9186Z" fill="#E0C78C"/>
</svg>
